<svg width="59" height="24" viewBox="0 0 59 24" fill="none" xmlns="http://www.w3.org/2000/svg">
<path fill-rule="evenodd" clip-rule="evenodd" d="M17.2206 11.8699C17.2206 13.5202 17.5117 15.0163 18.1213 16.4943C18.8218 18.2171 20.2047 20.0941 21.724 21.2547C22.6247 21.9438 23.5072 22.5242 24.5535 22.9594C27.8469 24.3195 31.3587 24.3739 34.6521 22.9594C35.3254 22.6692 35.9986 22.2975 36.6082 21.8894C37.5817 21.2457 38.2731 20.5928 39.0191 19.7677C39.283 19.4775 39.4467 19.2508 39.7015 18.9334C40.029 18.5163 40.5931 17.5552 40.8387 17.0565L41.2754 15.9774C42.3308 12.831 42.1943 9.97476 40.8296 6.95529C39.938 4.98764 38.3186 3.26482 36.5991 2.10418C35.3982 1.29718 34.7977 1.09769 33.5513 0.626181C33.1419 0.472034 32.7689 0.417629 32.3504 0.299752C31.6043 0.100267 30.4398 -0.00854281 29.5846 0.000524682C27.6104 0.0186597 26.0637 0.399494 24.5626 1.04329C23.5072 1.48759 23.0432 1.83216 22.1607 2.41248C21.8423 2.61196 21.1964 3.19228 20.9143 3.44617C20.2411 4.04462 19.3495 5.21433 18.9037 5.96693C17.8938 7.66255 17.2206 9.66647 17.2206 11.8699Z" fill="#DACE00"/>
<path fill-rule="evenodd" clip-rule="evenodd" d="M20.4959 5.86709L20.5323 5.8943C20.5414 5.8943 20.5595 5.91243 20.5686 5.9215C20.5777 5.9215 20.6596 5.96684 20.6687 5.9759C20.7233 6.00311 20.7961 6.02124 20.878 6.04844L22.1426 6.44741C22.4883 6.56529 23.5528 6.91892 23.7711 7.064C23.8166 7.68966 23.1343 11.8063 22.8613 12.5408L22.3518 14.1729C22.0061 14.1729 18.6581 13.112 18.6217 13.112C18.5853 13.5835 18.9128 14.853 19.0584 15.2791C19.6862 17.1289 20.7597 18.8699 22.1972 20.094C23.1252 20.8738 24.135 21.5901 25.4906 22.116C26.8462 22.651 28.3109 22.9412 30.0214 22.8958C33.1692 22.8142 35.7985 21.3634 37.4634 19.7222C38.8645 18.344 39.8471 16.6937 40.3838 14.6898C40.4839 14.318 40.5385 13.9553 40.6113 13.5835C40.675 13.1936 40.766 12.7947 40.7478 12.3866C40.4748 12.4048 39.1829 13.375 38.9828 13.4112L38.1094 12.0965C37.5544 11.226 37.0085 10.2195 36.4627 9.36714C36.3262 9.15859 35.6166 8.14303 35.5893 8.05236C35.9714 7.70779 38.264 6.58342 38.8554 6.22979L38.9646 6.13912C38.8827 5.78549 37.7 4.50697 37.3815 4.19867C33.8516 0.852771 28.5293 0.0911022 24.1987 2.49399C23.4072 2.93829 22.8249 3.36447 22.1426 3.96292C21.7969 4.27121 20.605 5.50439 20.4959 5.86709Z" fill="#000082"/>
<path fill-rule="evenodd" clip-rule="evenodd" d="M40.9116 21.8712C41.0298 21.9438 41.23 21.9529 41.3937 21.9529L51.2559 21.9438C52.4022 21.9438 53.1846 21.9166 54.3764 21.5176C55.0133 21.3091 54.804 21.3816 55.3863 21.1005C56.2779 20.6743 57.0603 19.8492 57.5334 18.9878C58.243 17.6821 58.1794 16.8932 58.1794 15.6056C58.1794 15.1069 58.0065 14.5628 57.8336 14.1639C57.5061 13.4475 56.7237 12.7312 56.0141 12.3957C55.5683 12.1872 55.6592 12.169 55.1225 11.9695L54.8768 11.8698C54.8131 11.8245 54.8404 11.8426 54.804 11.8063C55.077 11.7247 55.3681 11.7157 55.6501 11.625C55.914 11.5343 56.1687 11.4255 56.3962 11.3348C56.9875 11.0991 57.7972 10.5278 58.1612 10.0019C58.2976 9.80241 58.425 9.612 58.5706 9.35811C59.0528 8.48763 58.9982 7.64435 58.9982 6.70133C58.9982 5.94873 58.6615 5.21427 58.3886 4.67022C58.1066 4.13523 57.6153 3.65466 57.1149 3.29196C56.1869 2.6119 55.2134 2.50309 54.0853 2.36707C53.5849 2.3036 46.4886 2.34894 46.1883 2.34894L44.6144 2.33987C44.2687 2.3308 44.1868 2.3036 44.1322 2.62096C44.0594 3.07434 44.0139 3.48238 43.9321 3.92668C43.7774 4.76089 43.65 5.63137 43.4863 6.47465C43.4044 6.90082 43.368 7.31792 43.2861 7.75316C43.2133 8.1612 43.1132 8.63271 43.0678 9.04075C43.0041 9.52132 42.904 9.87495 42.8494 10.3283C42.7948 10.7726 42.7038 11.1988 42.622 11.625C42.5492 12.0421 42.4855 12.4955 42.4309 12.9126C42.4036 13.112 42.3399 13.3387 42.3035 13.5292L41.7759 16.7572C41.6576 17.3012 41.5757 18.0176 41.4574 18.6432C41.4119 18.8608 41.3937 19.0966 41.3574 19.3142C41.2209 19.958 41.139 20.6381 41.0298 21.2365C41.0025 21.3725 40.9116 21.7715 40.9116 21.8712ZM46.9253 18.4256C48.2809 18.4256 50.4825 18.5072 51.6107 18.1717C52.293 17.9722 52.7934 17.41 52.9117 17.2468C53.3484 16.8116 53.403 16.0499 53.3211 15.4152C53.1391 13.9644 51.7562 13.5926 50.3643 13.5836L47.3893 13.5745C46.9344 13.5745 46.9253 13.5019 46.8616 13.9372L46.3703 16.9476C46.3248 17.2106 46.0792 18.2987 46.1065 18.4347L46.9253 18.4256ZM47.4802 10.1651C47.9988 10.2558 48.9632 10.2014 49.5546 10.2014C50.2733 10.1923 50.901 10.147 51.6289 10.1379C52.2566 10.1379 52.8844 10.02 53.3029 9.6936C53.6213 9.43972 53.6213 9.42158 53.8124 9.12235C54.3309 8.35162 54.2582 7.20005 53.8124 6.61066C53.0027 5.55883 51.729 5.72205 50.4552 5.72205H48.2899C48.1444 5.99407 47.8078 8.46949 47.6804 9.01354C47.5985 9.35811 47.5985 9.60293 47.5439 9.86589C47.5257 9.9747 47.4893 10.0291 47.4802 10.1651Z" fill="#000082"/>
<path fill-rule="evenodd" clip-rule="evenodd" d="M0.00744254 21.9075C0.0165404 21.9347 0.0256383 21.9438 0.143911 21.9438C0.689784 21.9619 2.01808 21.9529 2.3456 21.9438L4.27435 21.9256C4.31074 21.9256 4.34714 21.8894 4.36533 21.8622L5.52986 14.8893C5.56625 14.6898 5.65723 14.0097 5.68452 13.8647C5.69362 13.8556 5.87558 13.8647 5.90287 13.8647H11.9439C11.6345 16.3673 11.1524 18.6886 10.7611 21.1186C10.5883 22.0798 10.5519 21.9529 11.4071 21.9529L15.0099 21.9347C15.0826 21.9347 15.1099 21.8984 15.1099 21.844C15.119 21.6446 15.119 21.4541 15.1372 21.1821L16.9295 10.7998L18.3215 2.33987L14.0455 2.34894C13.9727 2.34894 13.9454 2.36707 13.9454 2.39428L12.6444 10.02C12.5716 10.0926 7.495 10.0382 6.98552 10.0472L6.38506 10.0744C6.33957 9.71174 6.59431 8.56924 6.658 8.1612C6.75808 7.53554 6.84905 6.82828 6.98552 6.22983C7.0674 5.85806 7.63147 2.53029 7.59508 2.35801C6.51243 2.34894 4.69285 2.37614 3.71028 2.34894C3.53742 2.34894 3.38276 2.31267 3.29178 2.37614C3.24629 2.39428 3.219 2.43055 3.2008 2.49402L2.89147 4.37099C2.74591 5.21427 2.60034 6.00314 2.46387 6.87362C2.20003 8.54203 1.87251 10.1923 1.63596 11.8698L1.21746 14.3452C1.0719 15.1885 0.935427 16.0046 0.789861 16.8569C0.653393 17.673 0.53512 18.5435 0.380456 19.3686C0.307673 19.7404 -0.0562427 21.6718 0.00744254 21.9075Z" fill="#000082"/>
<path fill-rule="evenodd" clip-rule="evenodd" d="M26.6279 15.4062C26.7826 15.388 26.7553 15.2611 27.1738 15.2883C28.0926 15.3518 28.1017 16.2404 28.1654 16.4036C28.3383 16.3855 28.4475 16.2585 28.7204 16.3673C29.1753 16.5487 29.4937 16.993 29.7849 17.3466C29.9395 17.537 30.358 17.7637 30.731 17.7456C31.0495 17.7275 31.5226 17.4282 31.5589 17.2015C31.3588 17.0474 31.1131 16.9204 30.8766 16.7754C30.5491 16.5668 29.803 16.0772 29.4846 15.923C29.3482 15.8505 29.239 15.7961 29.1025 15.7417C28.9297 15.6691 28.7568 15.6873 28.7932 15.4969C29.3573 15.4243 31.8228 17.2831 32.2231 17.3738C32.8417 17.528 33.1875 16.7754 33.1875 16.5849C32.96 16.3764 32.6143 16.1497 32.3505 15.9502C31.7227 15.4787 30.8584 14.5901 30.076 14.1549C29.9668 14.0914 29.894 14.1005 29.9122 13.9463C30.2579 13.8466 31.932 15.379 32.1685 15.5875C32.4596 15.8505 32.96 16.195 33.2693 16.4217C33.606 16.6756 34.3338 16.8751 34.534 16.1588C34.7614 15.3518 33.424 14.3271 32.9145 13.9191C32.5233 13.6017 32.214 13.3116 31.9047 12.9852C31.8137 12.8945 31.0222 11.9877 31.1404 11.8517C31.2587 11.7338 31.3406 11.9877 31.5407 12.2688C31.9411 12.8219 32.3414 13.2209 32.8872 13.6652C33.5787 14.2365 34.2428 14.6989 34.6431 15.5513C34.7796 15.8414 34.7887 15.8596 35.1071 15.9865C36.3535 16.4671 36.5992 14.9256 35.189 13.5655C34.9161 13.3025 34.6158 12.9217 34.3247 12.6043C33.7515 11.9605 33.1056 11.3983 32.4596 10.8271C32.2686 10.6548 32.214 10.5369 32.0411 10.3556C31.8956 10.2014 31.7227 10.0473 31.5589 9.91128C30.6764 9.14961 30.3307 8.9864 29.1207 8.7053C28.311 8.51489 28.7932 8.83225 27.756 9.0408C27.1374 9.15868 26.0001 9.17681 25.6089 8.59649C25.4452 8.3426 25.4634 8.18846 25.4543 7.83482C25.1813 7.80762 24.9266 7.78042 24.6354 7.76228C24.3716 7.75322 24.1078 7.59907 23.9076 7.6172C23.8075 8.68717 23.4254 11.1263 23.1343 12.2507C23.0888 12.4411 22.9432 12.7041 23.0433 12.8491C23.662 13.8012 24.2078 14.1549 25.0994 14.6445C25.2541 14.7352 25.2177 14.7261 25.3906 14.6898C26.0183 14.5629 26.3368 14.8893 26.6279 15.4062Z" fill="#DACE00"/>
<path fill-rule="evenodd" clip-rule="evenodd" d="M35.9714 14.2909C36.1897 14.2547 36.399 14.0824 36.5992 13.9645C37.0813 13.6925 38.0639 13.2482 38.3914 12.8945C38.3641 12.7585 37.8456 12.0059 37.7364 11.8246C37.4089 11.2805 35.9532 8.75976 35.7349 8.63281C35.5438 8.71442 35.4892 8.8323 35.0616 8.92297C34.2064 9.09526 33.515 8.4968 32.9873 8.11597C32.214 7.55378 31.1859 7.29989 30.1033 7.10948C29.5301 7.00973 29.0024 6.83745 28.3656 6.92813C27.8106 7.00973 27.6013 7.42684 27.0828 7.59912C26.7734 7.69886 26.1548 7.69886 25.7818 7.7442C25.5907 7.76234 25.618 7.88021 25.6271 8.0797C25.6908 9.2222 27.6923 9.02272 28.3474 8.64188C28.7386 8.41519 28.5111 8.40613 29.057 8.51494C29.339 8.57841 29.5847 8.64188 29.8485 8.71442C30.4854 8.8867 30.64 9.00458 31.1404 9.36728C32.1776 10.1017 32.0957 10.2468 32.6507 10.7637C33.8607 11.8608 33.9699 11.9334 35.0889 13.2028C35.3527 13.5021 35.7712 13.8738 35.9714 14.2909Z" fill="#DACE00"/>
<path fill-rule="evenodd" clip-rule="evenodd" d="M26.928 15.4696C26.6824 15.5512 26.6278 15.6509 26.5641 15.9139C26.5277 16.0862 26.4186 16.467 26.455 16.594C26.5823 16.9929 27.019 17.1652 27.5103 17.1743C27.8742 17.1743 27.8651 17.1108 27.9288 16.7844C28.1472 15.787 27.4102 15.3154 26.928 15.4696Z" fill="#DACE00"/>
<path fill-rule="evenodd" clip-rule="evenodd" d="M25.4451 14.8622C24.6172 15.1252 24.872 16.3493 26.0274 16.44C26.3276 16.4581 26.2639 16.4762 26.3731 16.0138C26.4277 15.7962 26.5187 15.5604 26.4186 15.37C26.2821 15.107 25.8909 14.7171 25.4451 14.8622Z" fill="#DACE00"/>
<path fill-rule="evenodd" clip-rule="evenodd" d="M28.3565 16.5306C27.6105 17.0293 28.6658 18.1536 29.3755 17.7637C29.421 17.7365 29.521 17.6549 29.5665 17.6187C29.7485 17.4554 29.5665 17.3013 29.2754 16.993C29.1389 16.8479 28.6385 16.3311 28.3565 16.5306Z" fill="#DACE00"/>
<path fill-rule="evenodd" clip-rule="evenodd" d="M24.7628 15.4515C24.8629 15.0979 24.9994 14.9075 25.0176 14.7896C24.2897 14.436 24.0896 14.1186 23.8621 14.581C23.5983 15.107 24.2169 15.4787 24.7628 15.4515Z" fill="#DACE00"/>
</svg>
